<mxfile host="app.diagrams.net" agent="Mozilla/5.0 (Windows NT 10.0; Win64; x64; rv:128.0) Gecko/20100101 Firefox/128.0" version="27.0.6">
  <diagram name="Page-1" id="fa1vpyX-p5f97oOdeDNI">
    <mxGraphModel dx="1756" dy="1182" grid="1" gridSize="10" guides="1" tooltips="1" connect="1" arrows="1" fold="1" page="1" pageScale="1" pageWidth="850" pageHeight="1100" math="0" shadow="0">
      <root>
        <mxCell id="0" />
        <mxCell id="1" parent="0" />
        <mxCell id="tIE_Ls5JSvbM6n35pb9w-1" value="Player Engine" style="swimlane;fontStyle=0;childLayout=stackLayout;horizontal=1;startSize=26;fillColor=none;horizontalStack=0;resizeParent=1;resizeParentMax=0;resizeLast=0;collapsible=1;marginBottom=0;html=1;" vertex="1" parent="1">
          <mxGeometry y="10" width="360" height="182" as="geometry" />
        </mxCell>
        <mxCell id="tIE_Ls5JSvbM6n35pb9w-2" value="&lt;div&gt;Budget&lt;/div&gt;" style="text;strokeColor=none;fillColor=none;align=left;verticalAlign=top;spacingLeft=4;spacingRight=4;overflow=hidden;rotatable=0;points=[[0,0.5],[1,0.5]];portConstraint=eastwest;whiteSpace=wrap;html=1;" vertex="1" parent="tIE_Ls5JSvbM6n35pb9w-1">
          <mxGeometry y="26" width="360" height="26" as="geometry" />
        </mxCell>
        <mxCell id="tIE_Ls5JSvbM6n35pb9w-3" value="Speichern der gekauften&amp;nbsp; Objekte" style="text;strokeColor=none;fillColor=none;align=left;verticalAlign=top;spacingLeft=4;spacingRight=4;overflow=hidden;rotatable=0;points=[[0,0.5],[1,0.5]];portConstraint=eastwest;whiteSpace=wrap;html=1;" vertex="1" parent="tIE_Ls5JSvbM6n35pb9w-1">
          <mxGeometry y="52" width="360" height="26" as="geometry" />
        </mxCell>
        <mxCell id="tIE_Ls5JSvbM6n35pb9w-4" value="&lt;div&gt;Speichern der gebauten Objekte&lt;/div&gt;" style="text;strokeColor=none;fillColor=none;align=left;verticalAlign=top;spacingLeft=4;spacingRight=4;overflow=hidden;rotatable=0;points=[[0,0.5],[1,0.5]];portConstraint=eastwest;whiteSpace=wrap;html=1;" vertex="1" parent="tIE_Ls5JSvbM6n35pb9w-1">
          <mxGeometry y="78" width="360" height="26" as="geometry" />
        </mxCell>
        <mxCell id="tIE_Ls5JSvbM6n35pb9w-5" value="Würfelreihenfolge" style="text;strokeColor=none;fillColor=none;align=left;verticalAlign=top;spacingLeft=4;spacingRight=4;overflow=hidden;rotatable=0;points=[[0,0.5],[1,0.5]];portConstraint=eastwest;whiteSpace=wrap;html=1;" vertex="1" parent="tIE_Ls5JSvbM6n35pb9w-1">
          <mxGeometry y="104" width="360" height="26" as="geometry" />
        </mxCell>
        <mxCell id="tIE_Ls5JSvbM6n35pb9w-6" value="Position" style="text;strokeColor=none;fillColor=none;align=left;verticalAlign=top;spacingLeft=4;spacingRight=4;overflow=hidden;rotatable=0;points=[[0,0.5],[1,0.5]];portConstraint=eastwest;whiteSpace=wrap;html=1;" vertex="1" parent="tIE_Ls5JSvbM6n35pb9w-1">
          <mxGeometry y="130" width="360" height="26" as="geometry" />
        </mxCell>
        <mxCell id="tIE_Ls5JSvbM6n35pb9w-7" value="Ablauf vom Spieler" style="text;strokeColor=none;fillColor=none;align=left;verticalAlign=top;spacingLeft=4;spacingRight=4;overflow=hidden;rotatable=0;points=[[0,0.5],[1,0.5]];portConstraint=eastwest;whiteSpace=wrap;html=1;" vertex="1" parent="tIE_Ls5JSvbM6n35pb9w-1">
          <mxGeometry y="156" width="360" height="26" as="geometry" />
        </mxCell>
        <mxCell id="tIE_Ls5JSvbM6n35pb9w-16" value="" style="edgeStyle=none;curved=1;rounded=0;orthogonalLoop=1;jettySize=auto;html=1;fontSize=12;startSize=8;endSize=8;" edge="1" parent="1" source="tIE_Ls5JSvbM6n35pb9w-17" target="tIE_Ls5JSvbM6n35pb9w-19">
          <mxGeometry relative="1" as="geometry" />
        </mxCell>
        <mxCell id="tIE_Ls5JSvbM6n35pb9w-17" value="Spieler initialisieren" style="rounded=0;whiteSpace=wrap;html=1;" vertex="1" parent="1">
          <mxGeometry x="1580" y="950" width="120" height="60" as="geometry" />
        </mxCell>
        <mxCell id="tIE_Ls5JSvbM6n35pb9w-18" value="" style="edgeStyle=none;curved=1;rounded=0;orthogonalLoop=1;jettySize=auto;html=1;fontSize=12;startSize=8;endSize=8;" edge="1" parent="1" source="tIE_Ls5JSvbM6n35pb9w-19" target="tIE_Ls5JSvbM6n35pb9w-21">
          <mxGeometry relative="1" as="geometry" />
        </mxCell>
        <mxCell id="tIE_Ls5JSvbM6n35pb9w-19" value="CPU initialisieren" style="rounded=0;whiteSpace=wrap;html=1;" vertex="1" parent="1">
          <mxGeometry x="1580" y="1050" width="120" height="60" as="geometry" />
        </mxCell>
        <mxCell id="tIE_Ls5JSvbM6n35pb9w-20" value="" style="edgeStyle=none;curved=1;rounded=0;orthogonalLoop=1;jettySize=auto;html=1;fontSize=12;startSize=8;endSize=8;" edge="1" parent="1" source="tIE_Ls5JSvbM6n35pb9w-21" target="tIE_Ls5JSvbM6n35pb9w-23">
          <mxGeometry relative="1" as="geometry" />
        </mxCell>
        <mxCell id="tIE_Ls5JSvbM6n35pb9w-21" value="Startbudget auf 1500 M$" style="rounded=0;whiteSpace=wrap;html=1;" vertex="1" parent="1">
          <mxGeometry x="1580" y="1150" width="120" height="60" as="geometry" />
        </mxCell>
        <mxCell id="tIE_Ls5JSvbM6n35pb9w-162" style="edgeStyle=orthogonalEdgeStyle;rounded=0;orthogonalLoop=1;jettySize=auto;html=1;exitX=0.5;exitY=1;exitDx=0;exitDy=0;entryX=0.5;entryY=0;entryDx=0;entryDy=0;" edge="1" parent="1" source="tIE_Ls5JSvbM6n35pb9w-23" target="tIE_Ls5JSvbM6n35pb9w-152">
          <mxGeometry relative="1" as="geometry" />
        </mxCell>
        <mxCell id="tIE_Ls5JSvbM6n35pb9w-23" value="Spielerreihenfolge zufällig bestimmen durch Würfeln" style="rounded=0;whiteSpace=wrap;html=1;" vertex="1" parent="1">
          <mxGeometry x="1580" y="1245" width="120" height="60" as="geometry" />
        </mxCell>
        <mxCell id="tIE_Ls5JSvbM6n35pb9w-111" style="edgeStyle=orthogonalEdgeStyle;rounded=0;orthogonalLoop=1;jettySize=auto;html=1;exitX=0.5;exitY=1;exitDx=0;exitDy=0;entryX=0.5;entryY=0;entryDx=0;entryDy=0;" edge="1" parent="1" source="tIE_Ls5JSvbM6n35pb9w-109" target="tIE_Ls5JSvbM6n35pb9w-110">
          <mxGeometry relative="1" as="geometry" />
        </mxCell>
        <mxCell id="tIE_Ls5JSvbM6n35pb9w-109" value="Würfeln" style="rounded=0;whiteSpace=wrap;html=1;" vertex="1" parent="1">
          <mxGeometry x="1580" y="1555" width="120" height="60" as="geometry" />
        </mxCell>
        <mxCell id="tIE_Ls5JSvbM6n35pb9w-124" style="edgeStyle=orthogonalEdgeStyle;rounded=0;orthogonalLoop=1;jettySize=auto;html=1;exitX=0.5;exitY=1;exitDx=0;exitDy=0;entryX=0.5;entryY=0;entryDx=0;entryDy=0;" edge="1" parent="1" source="tIE_Ls5JSvbM6n35pb9w-110" target="tIE_Ls5JSvbM6n35pb9w-114">
          <mxGeometry relative="1" as="geometry" />
        </mxCell>
        <mxCell id="tIE_Ls5JSvbM6n35pb9w-110" value="Position += Augenzahl" style="rounded=0;whiteSpace=wrap;html=1;" vertex="1" parent="1">
          <mxGeometry x="1580" y="1645" width="120" height="60" as="geometry" />
        </mxCell>
        <mxCell id="tIE_Ls5JSvbM6n35pb9w-158" style="edgeStyle=orthogonalEdgeStyle;rounded=0;orthogonalLoop=1;jettySize=auto;html=1;exitX=0.5;exitY=1;exitDx=0;exitDy=0;entryX=0;entryY=0.5;entryDx=0;entryDy=0;" edge="1" parent="1" source="tIE_Ls5JSvbM6n35pb9w-112" target="tIE_Ls5JSvbM6n35pb9w-154">
          <mxGeometry relative="1" as="geometry" />
        </mxCell>
        <mxCell id="tIE_Ls5JSvbM6n35pb9w-112" value="Pasch?" style="rhombus;whiteSpace=wrap;html=1;rounded=0;" vertex="1" parent="1">
          <mxGeometry x="1720" y="2560" width="100" height="70" as="geometry" />
        </mxCell>
        <mxCell id="tIE_Ls5JSvbM6n35pb9w-119" style="edgeStyle=orthogonalEdgeStyle;rounded=0;orthogonalLoop=1;jettySize=auto;html=1;exitX=0.5;exitY=1;exitDx=0;exitDy=0;entryX=0.5;entryY=0;entryDx=0;entryDy=0;" edge="1" parent="1" source="tIE_Ls5JSvbM6n35pb9w-114" target="tIE_Ls5JSvbM6n35pb9w-115">
          <mxGeometry relative="1" as="geometry" />
        </mxCell>
        <mxCell id="tIE_Ls5JSvbM6n35pb9w-121" style="edgeStyle=orthogonalEdgeStyle;rounded=0;orthogonalLoop=1;jettySize=auto;html=1;exitX=0.5;exitY=1;exitDx=0;exitDy=0;entryX=0.5;entryY=0;entryDx=0;entryDy=0;" edge="1" parent="1" source="tIE_Ls5JSvbM6n35pb9w-114" target="tIE_Ls5JSvbM6n35pb9w-116">
          <mxGeometry relative="1" as="geometry" />
        </mxCell>
        <mxCell id="tIE_Ls5JSvbM6n35pb9w-122" style="edgeStyle=orthogonalEdgeStyle;rounded=0;orthogonalLoop=1;jettySize=auto;html=1;exitX=0.5;exitY=1;exitDx=0;exitDy=0;entryX=0.5;entryY=0;entryDx=0;entryDy=0;" edge="1" parent="1" source="tIE_Ls5JSvbM6n35pb9w-114" target="tIE_Ls5JSvbM6n35pb9w-117">
          <mxGeometry relative="1" as="geometry" />
        </mxCell>
        <mxCell id="tIE_Ls5JSvbM6n35pb9w-114" value="Feldtyp" style="rounded=0;whiteSpace=wrap;html=1;" vertex="1" parent="1">
          <mxGeometry x="1580" y="1735" width="120" height="60" as="geometry" />
        </mxCell>
        <mxCell id="tIE_Ls5JSvbM6n35pb9w-127" style="edgeStyle=orthogonalEdgeStyle;rounded=0;orthogonalLoop=1;jettySize=auto;html=1;exitX=0.5;exitY=1;exitDx=0;exitDy=0;entryX=0.5;entryY=0;entryDx=0;entryDy=0;" edge="1" parent="1" source="tIE_Ls5JSvbM6n35pb9w-115" target="tIE_Ls5JSvbM6n35pb9w-123">
          <mxGeometry relative="1" as="geometry" />
        </mxCell>
        <mxCell id="tIE_Ls5JSvbM6n35pb9w-115" value="Straße" style="rounded=0;whiteSpace=wrap;html=1;" vertex="1" parent="1">
          <mxGeometry x="1320" y="1865" width="120" height="60" as="geometry" />
        </mxCell>
        <mxCell id="tIE_Ls5JSvbM6n35pb9w-125" style="edgeStyle=orthogonalEdgeStyle;rounded=0;orthogonalLoop=1;jettySize=auto;html=1;exitX=0.5;exitY=1;exitDx=0;exitDy=0;entryX=0.5;entryY=0;entryDx=0;entryDy=0;" edge="1" parent="1" source="tIE_Ls5JSvbM6n35pb9w-116" target="tIE_Ls5JSvbM6n35pb9w-123">
          <mxGeometry relative="1" as="geometry" />
        </mxCell>
        <mxCell id="tIE_Ls5JSvbM6n35pb9w-116" value="Bahnhof" style="rounded=0;whiteSpace=wrap;html=1;" vertex="1" parent="1">
          <mxGeometry x="1580" y="1865" width="120" height="60" as="geometry" />
        </mxCell>
        <mxCell id="tIE_Ls5JSvbM6n35pb9w-174" style="edgeStyle=orthogonalEdgeStyle;rounded=0;orthogonalLoop=1;jettySize=auto;html=1;exitX=0.5;exitY=1;exitDx=0;exitDy=0;entryX=0.5;entryY=0;entryDx=0;entryDy=0;" edge="1" parent="1" source="tIE_Ls5JSvbM6n35pb9w-117" target="tIE_Ls5JSvbM6n35pb9w-173">
          <mxGeometry relative="1" as="geometry" />
        </mxCell>
        <mxCell id="tIE_Ls5JSvbM6n35pb9w-117" value="Ereignisfeld" style="rounded=0;whiteSpace=wrap;html=1;" vertex="1" parent="1">
          <mxGeometry x="1840" y="1865" width="120" height="60" as="geometry" />
        </mxCell>
        <mxCell id="tIE_Ls5JSvbM6n35pb9w-130" style="edgeStyle=orthogonalEdgeStyle;rounded=0;orthogonalLoop=1;jettySize=auto;html=1;exitX=0.5;exitY=1;exitDx=0;exitDy=0;entryX=0.5;entryY=0;entryDx=0;entryDy=0;" edge="1" parent="1" source="tIE_Ls5JSvbM6n35pb9w-123" target="tIE_Ls5JSvbM6n35pb9w-128">
          <mxGeometry relative="1" as="geometry" />
        </mxCell>
        <mxCell id="tIE_Ls5JSvbM6n35pb9w-131" value="Ja" style="edgeLabel;html=1;align=center;verticalAlign=middle;resizable=0;points=[];" vertex="1" connectable="0" parent="tIE_Ls5JSvbM6n35pb9w-130">
          <mxGeometry x="0.1098" y="-3" relative="1" as="geometry">
            <mxPoint as="offset" />
          </mxGeometry>
        </mxCell>
        <mxCell id="tIE_Ls5JSvbM6n35pb9w-132" style="edgeStyle=orthogonalEdgeStyle;rounded=0;orthogonalLoop=1;jettySize=auto;html=1;exitX=0.5;exitY=1;exitDx=0;exitDy=0;entryX=0.5;entryY=0;entryDx=0;entryDy=0;" edge="1" parent="1" source="tIE_Ls5JSvbM6n35pb9w-123" target="tIE_Ls5JSvbM6n35pb9w-129">
          <mxGeometry relative="1" as="geometry" />
        </mxCell>
        <mxCell id="tIE_Ls5JSvbM6n35pb9w-133" value="Nein" style="edgeLabel;html=1;align=center;verticalAlign=middle;resizable=0;points=[];" vertex="1" connectable="0" parent="tIE_Ls5JSvbM6n35pb9w-132">
          <mxGeometry x="0.09" y="-3" relative="1" as="geometry">
            <mxPoint as="offset" />
          </mxGeometry>
        </mxCell>
        <mxCell id="tIE_Ls5JSvbM6n35pb9w-123" value="&lt;div&gt;Gekauft&lt;/div&gt;&lt;div&gt;&lt;br&gt;&lt;/div&gt;" style="rounded=0;whiteSpace=wrap;html=1;" vertex="1" parent="1">
          <mxGeometry x="1460" y="1995" width="120" height="60" as="geometry" />
        </mxCell>
        <mxCell id="tIE_Ls5JSvbM6n35pb9w-151" style="edgeStyle=orthogonalEdgeStyle;rounded=0;orthogonalLoop=1;jettySize=auto;html=1;exitX=0.5;exitY=1;exitDx=0;exitDy=0;entryX=0.5;entryY=0;entryDx=0;entryDy=0;" edge="1" parent="1" source="tIE_Ls5JSvbM6n35pb9w-128" target="tIE_Ls5JSvbM6n35pb9w-112">
          <mxGeometry relative="1" as="geometry">
            <mxPoint x="1770" y="2550" as="targetPoint" />
            <Array as="points">
              <mxPoint x="1335" y="2480" />
              <mxPoint x="1771" y="2480" />
              <mxPoint x="1771" y="2550" />
            </Array>
          </mxGeometry>
        </mxCell>
        <mxCell id="tIE_Ls5JSvbM6n35pb9w-128" value="Zahlen falls er es nicht besitzt" style="rounded=0;whiteSpace=wrap;html=1;" vertex="1" parent="1">
          <mxGeometry x="1275" y="2125" width="120" height="60" as="geometry" />
        </mxCell>
        <mxCell id="tIE_Ls5JSvbM6n35pb9w-136" style="edgeStyle=orthogonalEdgeStyle;rounded=0;orthogonalLoop=1;jettySize=auto;html=1;exitX=0.5;exitY=1;exitDx=0;exitDy=0;entryX=0.5;entryY=0;entryDx=0;entryDy=0;" edge="1" parent="1" source="tIE_Ls5JSvbM6n35pb9w-129" target="tIE_Ls5JSvbM6n35pb9w-134">
          <mxGeometry relative="1" as="geometry" />
        </mxCell>
        <mxCell id="tIE_Ls5JSvbM6n35pb9w-137" value="Ja" style="edgeLabel;html=1;align=center;verticalAlign=middle;resizable=0;points=[];" vertex="1" connectable="0" parent="tIE_Ls5JSvbM6n35pb9w-136">
          <mxGeometry x="0.1188" relative="1" as="geometry">
            <mxPoint x="1" as="offset" />
          </mxGeometry>
        </mxCell>
        <mxCell id="tIE_Ls5JSvbM6n35pb9w-138" style="edgeStyle=orthogonalEdgeStyle;rounded=0;orthogonalLoop=1;jettySize=auto;html=1;exitX=0.5;exitY=1;exitDx=0;exitDy=0;entryX=0.5;entryY=0;entryDx=0;entryDy=0;" edge="1" parent="1" source="tIE_Ls5JSvbM6n35pb9w-129" target="tIE_Ls5JSvbM6n35pb9w-135">
          <mxGeometry relative="1" as="geometry" />
        </mxCell>
        <mxCell id="tIE_Ls5JSvbM6n35pb9w-139" value="Nein" style="edgeLabel;html=1;align=center;verticalAlign=middle;resizable=0;points=[];" vertex="1" connectable="0" parent="tIE_Ls5JSvbM6n35pb9w-138">
          <mxGeometry x="0.0439" y="-3" relative="1" as="geometry">
            <mxPoint x="-1" as="offset" />
          </mxGeometry>
        </mxCell>
        <mxCell id="tIE_Ls5JSvbM6n35pb9w-129" value="Kaufen?" style="rounded=0;whiteSpace=wrap;html=1;" vertex="1" parent="1">
          <mxGeometry x="1560" y="2125" width="120" height="60" as="geometry" />
        </mxCell>
        <mxCell id="tIE_Ls5JSvbM6n35pb9w-141" style="edgeStyle=orthogonalEdgeStyle;rounded=0;orthogonalLoop=1;jettySize=auto;html=1;exitX=0.5;exitY=1;exitDx=0;exitDy=0;entryX=0.5;entryY=0;entryDx=0;entryDy=0;" edge="1" parent="1" source="tIE_Ls5JSvbM6n35pb9w-134" target="tIE_Ls5JSvbM6n35pb9w-140">
          <mxGeometry relative="1" as="geometry" />
        </mxCell>
        <mxCell id="tIE_Ls5JSvbM6n35pb9w-147" value="Ja" style="edgeLabel;html=1;align=center;verticalAlign=middle;resizable=0;points=[];" vertex="1" connectable="0" parent="tIE_Ls5JSvbM6n35pb9w-141">
          <mxGeometry x="-0.0967" y="1" relative="1" as="geometry">
            <mxPoint x="1" as="offset" />
          </mxGeometry>
        </mxCell>
        <mxCell id="tIE_Ls5JSvbM6n35pb9w-149" style="edgeStyle=orthogonalEdgeStyle;rounded=0;orthogonalLoop=1;jettySize=auto;html=1;exitX=0.5;exitY=1;exitDx=0;exitDy=0;entryX=0.5;entryY=0;entryDx=0;entryDy=0;" edge="1" parent="1" source="tIE_Ls5JSvbM6n35pb9w-134" target="tIE_Ls5JSvbM6n35pb9w-144">
          <mxGeometry relative="1" as="geometry" />
        </mxCell>
        <mxCell id="tIE_Ls5JSvbM6n35pb9w-150" value="Nein" style="edgeLabel;html=1;align=center;verticalAlign=middle;resizable=0;points=[];" vertex="1" connectable="0" parent="tIE_Ls5JSvbM6n35pb9w-149">
          <mxGeometry x="-0.1394" y="-1" relative="1" as="geometry">
            <mxPoint x="-1" as="offset" />
          </mxGeometry>
        </mxCell>
        <mxCell id="tIE_Ls5JSvbM6n35pb9w-134" value="Budget - Straßenreis &amp;gt;= 0?" style="rounded=0;whiteSpace=wrap;html=1;" vertex="1" parent="1">
          <mxGeometry x="1510" y="2245" width="120" height="60" as="geometry" />
        </mxCell>
        <mxCell id="tIE_Ls5JSvbM6n35pb9w-171" style="edgeStyle=orthogonalEdgeStyle;rounded=0;orthogonalLoop=1;jettySize=auto;html=1;exitX=0.5;exitY=1;exitDx=0;exitDy=0;entryX=0.5;entryY=0;entryDx=0;entryDy=0;" edge="1" parent="1" source="tIE_Ls5JSvbM6n35pb9w-135" target="tIE_Ls5JSvbM6n35pb9w-112">
          <mxGeometry relative="1" as="geometry">
            <Array as="points">
              <mxPoint x="1730" y="2305" />
              <mxPoint x="1730" y="2433" />
              <mxPoint x="1770" y="2433" />
            </Array>
          </mxGeometry>
        </mxCell>
        <mxCell id="tIE_Ls5JSvbM6n35pb9w-135" value="nichts" style="rounded=0;whiteSpace=wrap;html=1;" vertex="1" parent="1">
          <mxGeometry x="1640" y="2245" width="120" height="60" as="geometry" />
        </mxCell>
        <mxCell id="tIE_Ls5JSvbM6n35pb9w-167" style="edgeStyle=orthogonalEdgeStyle;rounded=0;orthogonalLoop=1;jettySize=auto;html=1;exitX=0.5;exitY=1;exitDx=0;exitDy=0;entryX=0.5;entryY=0;entryDx=0;entryDy=0;" edge="1" parent="1" source="tIE_Ls5JSvbM6n35pb9w-140" target="tIE_Ls5JSvbM6n35pb9w-112">
          <mxGeometry relative="1" as="geometry" />
        </mxCell>
        <mxCell id="tIE_Ls5JSvbM6n35pb9w-140" value="Spieler Straßenliste.append()" style="rounded=0;whiteSpace=wrap;html=1;" vertex="1" parent="1">
          <mxGeometry x="1460" y="2345" width="120" height="60" as="geometry" />
        </mxCell>
        <mxCell id="tIE_Ls5JSvbM6n35pb9w-169" style="edgeStyle=orthogonalEdgeStyle;rounded=0;orthogonalLoop=1;jettySize=auto;html=1;exitX=0.5;exitY=1;exitDx=0;exitDy=0;entryX=0.5;entryY=0;entryDx=0;entryDy=0;" edge="1" parent="1" source="tIE_Ls5JSvbM6n35pb9w-144" target="tIE_Ls5JSvbM6n35pb9w-112">
          <mxGeometry relative="1" as="geometry" />
        </mxCell>
        <mxCell id="tIE_Ls5JSvbM6n35pb9w-144" value="Fehlermeldung zu wenig geld" style="rounded=0;whiteSpace=wrap;html=1;" vertex="1" parent="1">
          <mxGeometry x="1590" y="2345" width="120" height="60" as="geometry" />
        </mxCell>
        <mxCell id="tIE_Ls5JSvbM6n35pb9w-153" style="edgeStyle=orthogonalEdgeStyle;rounded=0;orthogonalLoop=1;jettySize=auto;html=1;exitX=0.5;exitY=1;exitDx=0;exitDy=0;entryX=0.5;entryY=0;entryDx=0;entryDy=0;" edge="1" parent="1" source="tIE_Ls5JSvbM6n35pb9w-152" target="tIE_Ls5JSvbM6n35pb9w-109">
          <mxGeometry relative="1" as="geometry" />
        </mxCell>
        <mxCell id="tIE_Ls5JSvbM6n35pb9w-152" value="&lt;div&gt;Menü/&lt;/div&gt;&lt;div&gt;Inventar, Budget, Handeln, Würfeln,...&lt;br&gt;&lt;/div&gt;" style="rounded=0;whiteSpace=wrap;html=1;" vertex="1" parent="1">
          <mxGeometry x="1580" y="1440" width="120" height="60" as="geometry" />
        </mxCell>
        <mxCell id="tIE_Ls5JSvbM6n35pb9w-160" style="edgeStyle=orthogonalEdgeStyle;rounded=0;orthogonalLoop=1;jettySize=auto;html=1;exitX=1;exitY=0.5;exitDx=0;exitDy=0;entryX=0;entryY=0.5;entryDx=0;entryDy=0;" edge="1" parent="1" source="tIE_Ls5JSvbM6n35pb9w-154" target="tIE_Ls5JSvbM6n35pb9w-159">
          <mxGeometry relative="1" as="geometry" />
        </mxCell>
        <mxCell id="tIE_Ls5JSvbM6n35pb9w-154" value="Pasch++" style="shape=step;perimeter=stepPerimeter;whiteSpace=wrap;html=1;fixedSize=1;" vertex="1" parent="1">
          <mxGeometry x="1020" y="1310" width="120" height="80" as="geometry" />
        </mxCell>
        <mxCell id="tIE_Ls5JSvbM6n35pb9w-161" style="edgeStyle=orthogonalEdgeStyle;rounded=0;orthogonalLoop=1;jettySize=auto;html=1;exitX=1;exitY=0.5;exitDx=0;exitDy=0;entryX=0.5;entryY=0;entryDx=0;entryDy=0;" edge="1" parent="1" source="tIE_Ls5JSvbM6n35pb9w-159" target="tIE_Ls5JSvbM6n35pb9w-152">
          <mxGeometry relative="1" as="geometry" />
        </mxCell>
        <mxCell id="tIE_Ls5JSvbM6n35pb9w-163" value="Nein" style="edgeLabel;html=1;align=center;verticalAlign=middle;resizable=0;points=[];" vertex="1" connectable="0" parent="tIE_Ls5JSvbM6n35pb9w-161">
          <mxGeometry x="-0.6949" y="-4" relative="1" as="geometry">
            <mxPoint x="1" as="offset" />
          </mxGeometry>
        </mxCell>
        <mxCell id="tIE_Ls5JSvbM6n35pb9w-164" style="edgeStyle=orthogonalEdgeStyle;rounded=0;orthogonalLoop=1;jettySize=auto;html=1;exitX=0.5;exitY=1;exitDx=0;exitDy=0;entryX=0.5;entryY=0;entryDx=0;entryDy=0;" edge="1" parent="1" source="tIE_Ls5JSvbM6n35pb9w-159" target="tIE_Ls5JSvbM6n35pb9w-165">
          <mxGeometry relative="1" as="geometry">
            <mxPoint x="1240" y="1430" as="targetPoint" />
          </mxGeometry>
        </mxCell>
        <mxCell id="tIE_Ls5JSvbM6n35pb9w-166" value="Ja" style="edgeLabel;html=1;align=center;verticalAlign=middle;resizable=0;points=[];" vertex="1" connectable="0" parent="tIE_Ls5JSvbM6n35pb9w-164">
          <mxGeometry x="-0.2185" y="-3" relative="1" as="geometry">
            <mxPoint as="offset" />
          </mxGeometry>
        </mxCell>
        <mxCell id="tIE_Ls5JSvbM6n35pb9w-159" value="Pasch &amp;gt; 1" style="rounded=0;whiteSpace=wrap;html=1;" vertex="1" parent="1">
          <mxGeometry x="1190" y="1320" width="120" height="60" as="geometry" />
        </mxCell>
        <mxCell id="tIE_Ls5JSvbM6n35pb9w-165" value="Gefängnis" style="rounded=0;whiteSpace=wrap;html=1;" vertex="1" parent="1">
          <mxGeometry x="1190" y="1450" width="120" height="60" as="geometry" />
        </mxCell>
        <mxCell id="tIE_Ls5JSvbM6n35pb9w-176" style="edgeStyle=orthogonalEdgeStyle;rounded=0;orthogonalLoop=1;jettySize=auto;html=1;exitX=0.5;exitY=1;exitDx=0;exitDy=0;entryX=0.5;entryY=0;entryDx=0;entryDy=0;" edge="1" parent="1" source="tIE_Ls5JSvbM6n35pb9w-173" target="tIE_Ls5JSvbM6n35pb9w-175">
          <mxGeometry relative="1" as="geometry" />
        </mxCell>
        <mxCell id="tIE_Ls5JSvbM6n35pb9w-173" value="Ereigniskarte 1, 2, 3, 4, n Rabdom ziehen" style="rounded=0;whiteSpace=wrap;html=1;" vertex="1" parent="1">
          <mxGeometry x="1840" y="2010" width="120" height="60" as="geometry" />
        </mxCell>
        <mxCell id="tIE_Ls5JSvbM6n35pb9w-177" style="edgeStyle=orthogonalEdgeStyle;rounded=0;orthogonalLoop=1;jettySize=auto;html=1;exitX=0.5;exitY=1;exitDx=0;exitDy=0;entryX=0.5;entryY=0;entryDx=0;entryDy=0;" edge="1" parent="1" source="tIE_Ls5JSvbM6n35pb9w-175" target="tIE_Ls5JSvbM6n35pb9w-112">
          <mxGeometry relative="1" as="geometry">
            <Array as="points">
              <mxPoint x="1900" y="2480" />
              <mxPoint x="1770" y="2480" />
            </Array>
          </mxGeometry>
        </mxCell>
        <mxCell id="tIE_Ls5JSvbM6n35pb9w-175" value="Regelwerk..." style="rounded=0;whiteSpace=wrap;html=1;" vertex="1" parent="1">
          <mxGeometry x="1840" y="2100" width="120" height="60" as="geometry" />
        </mxCell>
      </root>
    </mxGraphModel>
  </diagram>
</mxfile>
